<svg id="Layer_1" data-name="Layer 1" xmlns="http://www.w3.org/2000/svg" viewBox="0 0 325.56 60.72"><defs><style>.cls-1{fill:#534741;}.cls-2{fill:#ad1717;}</style></defs><title>logo1</title><path class="cls-1" d="M20.53,17.63a2.73,2.73,0,0,1,2,.71,2.62,2.62,0,0,1,.73,2,5.64,5.64,0,0,1,0,.65,1.72,1.72,0,0,1-.16.57q-.51-.08-1.14-.14t-1.5-.06a20.27,20.27,0,0,0-3.54.31q-1.77.32-3.39.51Q11.71,26.33,10.57,30a58.11,58.11,0,0,0-1.77,7.25A5.84,5.84,0,0,1,6.43,36.1,8.8,8.8,0,0,1,4.5,33.78l.67-1.52q.39-.89.95-2.25t1.32-3.31L9.27,22A3.22,3.22,0,0,1,7.1,20.11a3.09,3.09,0,0,1,1.1-.45q.91-.26,2.21-.57.59-1.54,1-2.74t.79-2.28q.35-1.08.65-2.13t.53-2.23h-.2A3.86,3.86,0,0,1,10.78,9a2.24,2.24,0,0,1-.93-1.86,3.47,3.47,0,0,1,.1-.75,3.35,3.35,0,0,1,.26-.75q.75.06,1.48.06h6.56a36.71,36.71,0,0,0,3.92-.19q1.75-.19,3-.35A16.11,16.11,0,0,1,27.11,5a2,2,0,0,1,1.62.95,7.11,7.11,0,0,1,1.1,2.68,17.28,17.28,0,0,0-2-.16H26.44a35.29,35.29,0,0,0-3.68.18q-1.67.18-3.17.41-.24.35-.53.9t-.77,1.55q-.47,1-1.2,2.61t-1.83,4.08q1.54-.24,2.93-.39A21.58,21.58,0,0,1,20.53,17.63Z" transform="translate(-4.5 -4.65)"/><path class="cls-1" d="M40.39,31.81a6.5,6.5,0,0,1,1,3.26,3.27,3.27,0,0,1-.06.65c0,.2-.09.4-.14.61a9.57,9.57,0,0,0-1.4-.1H36.35a20.53,20.53,0,0,0-2.15.13q-1.18.13-2.64.33t-3.39.54A4.82,4.82,0,0,1,26.36,36a12.18,12.18,0,0,1-1.69-2.23l1-2.15q.59-1.28,1.38-3.11t1.75-4.29q1-2.46,2.07-5.69.71-2.13,1.22-3.74T33,11.64q.41-1.52.81-3.17t.87-3.82a6.88,6.88,0,0,1,2.74,1.16,9.61,9.61,0,0,1,2.23,2.42,15.48,15.48,0,0,0-.83,1.65q-.51,1.14-1.2,2.77t-1.52,3.7q-.83,2.07-1.73,4.43t-1.69,4.37q-.83,2-1.48,3.7t-1,2.83a6.24,6.24,0,0,0-.39,1.77q.63,0,1.14,0A10.59,10.59,0,0,0,32,33.28l1.2-.24q.65-.14,1.56-.37t1.46-.33q.67-.14,1.32-.24t1.34-.16Z" transform="translate(-4.5 -4.65)"/><path class="cls-1" d="M62.33,5.38a11,11,0,0,1,1.54.81q.79.49,1.46,1a8.8,8.8,0,0,1,1.12,1,1.69,1.69,0,0,1,.49.81,9.6,9.6,0,0,0-1.34-.22q-.67-.06-1.22-.06a7.9,7.9,0,0,0-3.53.87A13.59,13.59,0,0,0,57.52,12a20.46,20.46,0,0,0-2.92,3.51,25.85,25.85,0,0,0-2.3,4.29,27.85,27.85,0,0,0-1.52,4.73,21.74,21.74,0,0,0-.55,4.81,8.17,8.17,0,0,0,1,4.57,3.4,3.4,0,0,0,3,1.5,6.42,6.42,0,0,0,2-.37,12.29,12.29,0,0,0,2.25-1,15.52,15.52,0,0,0,2.25-1.62,17.11,17.11,0,0,0,2-2.09,21.24,21.24,0,0,0,2.48-3.76A28.81,28.81,0,0,0,67.19,22a33.27,33.27,0,0,0,1.18-4.86,30.07,30.07,0,0,0,.41-4.9q0-.95,0-1.6t-.1-1.1c0-.3-.07-.54-.1-.73s-.05-.34-.08-.47q.47.24,1,.57a3.73,3.73,0,0,1,1.06,1,5.63,5.63,0,0,1,.83,1.71,9.4,9.4,0,0,1,.33,2.76,22.74,22.74,0,0,1-.65,5.42,25.52,25.52,0,0,1-1.81,5.06,26.81,26.81,0,0,1-2.74,4.49A23.91,23.91,0,0,1,63.15,33a18.7,18.7,0,0,1-5,3.23A13.14,13.14,0,0,1,53,37.36a6.78,6.78,0,0,1-5.53-2.3q-1.91-2.3-1.91-6.79A26.13,26.13,0,0,1,46,23.18a34.36,34.36,0,0,1,1.5-5.28A33.27,33.27,0,0,1,49.84,13a24.37,24.37,0,0,1,2.93-4.14A14.06,14.06,0,0,1,56.2,6,7.4,7.4,0,0,1,60,4.9a6.75,6.75,0,0,1,1.18.1A5.31,5.31,0,0,1,62.33,5.38Z" transform="translate(-4.5 -4.65)"/><path class="cls-1" d="M77.18,35.27q-.2-1.62-.3-3.53t-.1-3.56q0-2.64.18-5.06T77.39,18q.26-2.66.57-5.79T78.52,5a5.53,5.53,0,0,1,1.48.3q1,.3,1.95.69a15.57,15.57,0,0,1,1.73.81,2.05,2.05,0,0,1,.87.69,21.58,21.58,0,0,0-1.2,4Q82.81,14,82.45,17t-.55,6.07q-.2,3.11-.2,5.83,0,1.26,0,2.48t.12,2.25a28.13,28.13,0,0,0,1.91-3.49q1.08-2.26,2.25-5.06t2.32-5.85q1.16-3.05,2.15-5.83t1.67-5q.69-2.22,1-3.37a6,6,0,0,1,1.52.3,20.65,20.65,0,0,1,2,.69,16.28,16.28,0,0,1,1.71.81q.75.41.83.69a21.54,21.54,0,0,0-1.2,4Q97.42,14,97.07,17t-.55,6.07q-.2,3.11-.2,5.83,0,1.14,0,2.27t.1,2q1.26-3.27,2.62-6.48t2.7-6.15q1.34-2.93,2.6-5.48t2.32-4.53q1.06-2,1.85-3.29a10.29,10.29,0,0,1,1.22-1.73,5.32,5.32,0,0,1,1.87.65,6.59,6.59,0,0,1,1.71,1.36,14.57,14.57,0,0,0-2.6,3q-1.46,2.07-3,4.79t-3.09,5.79q-1.56,3.07-2.9,6t-2.38,5.44q-1,2.52-1.6,4.06a4.78,4.78,0,0,1-2,.47,9,9,0,0,1-2.38-.63,3.6,3.6,0,0,1-1.6-1.14q-.12-.63-.2-1.48t-.12-1.67q0-.83-.06-1.6t0-1.32q0-3.51.28-7.15t.67-7.82q-.91,2.68-2,5.75T88,26.08q-1.2,3-2.44,5.75a50.77,50.77,0,0,1-2.42,4.75,4.78,4.78,0,0,1-2,.47,9,9,0,0,1-2.38-.63A3.6,3.6,0,0,1,77.18,35.27Z" transform="translate(-4.5 -4.65)"/><path class="cls-1" d="M125.94,17.27a2.79,2.79,0,0,1,2,.71,2.62,2.62,0,0,1,.73,2,3.72,3.72,0,0,1-.06.65,4,4,0,0,1-.14.57q-.51-.08-1.14-.14t-1.5-.06a20.39,20.39,0,0,0-3.43.3q-1.73.3-3.31.49-.91,2.09-1.65,4t-1.28,3.57q-.53,1.62-.83,2.8A11.17,11.17,0,0,0,115,34q3.19-.73,6.44-1.24a43.77,43.77,0,0,1,6.83-.51,7.25,7.25,0,0,1,.73,1.42,4.53,4.53,0,0,1,.3,1.65v.5a1.9,1.9,0,0,1-.08.54h-8a22,22,0,0,0-2.34.13q-1.18.12-2.5.34l-3,.5a7.94,7.94,0,0,1-3.51-3.47q.67-1.42,1.87-4.32t3.05-7.75a3.37,3.37,0,0,1-2.32-2,3.47,3.47,0,0,1,1.14-.49q.95-.3,2.32-.61.59-1.54,1-2.68t.73-2.15q.31-1,.57-2t.49-2.11a3.14,3.14,0,0,1-2.17-.7,2.32,2.32,0,0,1-.79-1.82,3.53,3.53,0,0,1,.1-.76,6,6,0,0,1,.22-.76q.79.06,1.52.06h6.56a34.83,34.83,0,0,0,3.92-.2q1.75-.2,3-.37A15.23,15.23,0,0,1,133.11,5a2,2,0,0,1,1.62.95,6.72,6.72,0,0,1,1.06,2.68,15.66,15.66,0,0,0-2-.16h-1.36a33.23,33.23,0,0,0-4,.22q-1.79.22-3.45.45-.24.35-.53.9t-.77,1.53q-.47,1-1.16,2.47t-1.67,3.73q1.5-.24,2.82-.37A22,22,0,0,1,125.94,17.27Z" transform="translate(-4.5 -4.65)"/><path class="cls-1" d="M160.45,12.35a7.79,7.79,0,0,1-.85,3.56,10,10,0,0,1-2.34,3,13.89,13.89,0,0,1-3.51,2.23,15.56,15.56,0,0,1-4.37,1.22A37.9,37.9,0,0,0,150.82,26q.85,1.87,1.83,3.6a33.23,33.23,0,0,0,2,3.19,16.5,16.5,0,0,0,2.09,2.4,3.33,3.33,0,0,1-.57.79,5.34,5.34,0,0,1-.87.73,5.57,5.57,0,0,1-1,.55,2.67,2.67,0,0,1-1,.22,2.29,2.29,0,0,1-1.65-.83,9.55,9.55,0,0,1-1.6-2.62,41.68,41.68,0,0,1-1.69-4.65q-.89-2.85-2-6.87h-.87a2.21,2.21,0,0,1-.67-.08,2.2,2.2,0,0,1-.59-.55q-1.06,2.29-1.89,4.29t-1.48,3.88q-.65,1.87-1.14,3.62t-.85,3.56a5.52,5.52,0,0,1-2.32-1.14,8.66,8.66,0,0,1-1.85-2.32q.16-.35.33-.69t.45-.95l.69-1.56,1.1-2.52Q138,26.49,139,24.2l2.34-5.55q.63-1.46,1.08-2.56t.81-2.11q.35-1,.65-2t.61-2.3a29.47,29.47,0,0,0-3.37,1.4,12.69,12.69,0,0,0-2.58,1.63,3.31,3.31,0,0,1-.73-.71,7.49,7.49,0,0,1-.69-1,10.23,10.23,0,0,1-.55-1.16,3.73,3.73,0,0,1-.28-1.06,15.26,15.26,0,0,1,2.9-1.46,31.29,31.29,0,0,1,3.64-1.16,35.49,35.49,0,0,1,3.94-.77,27.74,27.74,0,0,1,3.74-.28q4.73,0,7.33,1.95A6.31,6.31,0,0,1,160.45,12.35ZM150.84,9a13,13,0,0,0-.87,1.42q-.59,1.06-1.36,2.54T147,16.21q-.85,1.73-1.63,3.43a25,25,0,0,0,5.44-.55,16,16,0,0,0,4.29-1.56,8.63,8.63,0,0,0,2.82-2.36,5,5,0,0,0,1-3,3.51,3.51,0,0,0-1.42-3,7.4,7.4,0,0,0-4.37-1q-.67,0-1.34.06l-1.42.14Z" transform="translate(-4.5 -4.65)"/><path class="cls-1" d="M186.17,7.5q.12.67.18.93a3.22,3.22,0,0,1,.06.69,5.27,5.27,0,0,1-.57,2.42,3.4,3.4,0,0,1-1.56,1.6,7.79,7.79,0,0,0-1.93-1.83,11.48,11.48,0,0,0-2.5-1.26A15.6,15.6,0,0,0,177,9.31a17.75,17.75,0,0,0-2.84-.24,14.57,14.57,0,0,0-2.58.22,10.79,10.79,0,0,0-2.13.59,4.16,4.16,0,0,0-1.46.93,1.77,1.77,0,0,0-.53,1.26,3.07,3.07,0,0,0,1.06,1.75,14.41,14.41,0,0,0,2.32,1.73q1.38.85,3.05,1.67t3.29,1.58q2,.95,3.47,1.75a10.39,10.39,0,0,1,2.4,1.77,6.42,6.42,0,0,1,1.42,2.19,8.21,8.21,0,0,1,.47,3,10.45,10.45,0,0,1-.67,3.76,8.75,8.75,0,0,1-1.95,3.05,9,9,0,0,1-3.09,2,10.8,10.8,0,0,1-4.06.73,18.93,18.93,0,0,1-4.77-.67,22.74,22.74,0,0,1-4.79-1.83,14.42,14.42,0,0,1-3.7-2.68,4.57,4.57,0,0,1-1.48-3.21,6.06,6.06,0,0,1,.45-2,8.39,8.39,0,0,1,1.63-2.56,6.14,6.14,0,0,0,1.28,2.8,11.31,11.31,0,0,0,3.49,3,17,17,0,0,0,4.47,1.83,18,18,0,0,0,4.31.57,9.78,9.78,0,0,0,3.58-.55,6.56,6.56,0,0,0,2.17-1.32,4.61,4.61,0,0,0,1.1-1.56,4.69,4.69,0,0,0,.35-1.26,2.39,2.39,0,0,0-.73-1.52,8.54,8.54,0,0,0-1.85-1.42,29.78,29.78,0,0,0-2.7-1.4q-1.54-.71-3.19-1.42-2.48-1.1-4.27-2.07a16.42,16.42,0,0,1-3-2,6.65,6.65,0,0,1-1.69-2.11,5.73,5.73,0,0,1-.53-2.52A7.3,7.3,0,0,1,166.75,9a8.28,8.28,0,0,1,3.86-3,11.27,11.27,0,0,1,2.7-.79A17.38,17.38,0,0,1,176.12,5a18.41,18.41,0,0,1,5.08.71A37.89,37.89,0,0,1,186.17,7.5Z" transform="translate(-4.5 -4.65)"/><path class="cls-1" d="M200.15,32q.59-1.3,1.42-3.35t1.73-4.43l1.85-4.88q.95-2.5,1.77-4.75t1.44-4q.61-1.77.89-2.72A11.05,11.05,0,0,0,205,11a13.92,13.92,0,0,0-2.68,5.24,4.08,4.08,0,0,1-1.65-1.12,4,4,0,0,1-1-2,8.75,8.75,0,0,1,1.48-3.31,10,10,0,0,1,2.74-2.56,13.26,13.26,0,0,1,3.82-1.63A18.19,18.19,0,0,1,212.36,5a17.4,17.4,0,0,1,5.79.93,13.66,13.66,0,0,1,4.53,2.58,11.68,11.68,0,0,1,3,4,12.26,12.26,0,0,1,1.06,5.16A19.46,19.46,0,0,1,225.28,25a20.7,20.7,0,0,1-3.84,6.18,18.91,18.91,0,0,1-5.61,4.27,14.78,14.78,0,0,1-6.7,1.6,11.24,11.24,0,0,1-5.53-1.28A8,8,0,0,1,200.15,32ZM214.06,7a12.54,12.54,0,0,0-3.74.55,16.68,16.68,0,0,1,2.88,1.32,11.19,11.19,0,0,1,1.58,1.08,16.63,16.63,0,0,0-.93,1.54q-.61,1.1-1.42,2.68t-1.71,3.45q-.91,1.87-1.77,3.84-2.25,5-3.25,7.88a14.78,14.78,0,0,0-1,4,5.69,5.69,0,0,0,1.34.28,16.84,16.84,0,0,0,1.69.08,13,13,0,0,0,6-1.48,16.73,16.73,0,0,0,5-4,19,19,0,0,0,3.39-5.77,19.42,19.42,0,0,0,1.24-6.91,8,8,0,0,0-2.52-6.3A9.87,9.87,0,0,0,214.06,7Z" transform="translate(-4.5 -4.65)"/><path class="cls-1" d="M229.93,37a8.73,8.73,0,0,1-2.62-1.1,1.67,1.67,0,0,1-.73-1.38,6.49,6.49,0,0,1,.35-1.77,25.49,25.49,0,0,1,1-2.7q.69-1.56,1.65-3.45t2.19-4.06h-3.15a2.2,2.2,0,0,1,1.34-1,15.33,15.33,0,0,1,2.92-.75,55.88,55.88,0,0,1,3.29-4.9q1.75-2.33,3.53-4.29a35.79,35.79,0,0,1,3.55-3.44,20.56,20.56,0,0,1,3.39-2.35c0-.18,0-.34.06-.47s0-.22,0-.28a5.53,5.53,0,0,1,1.48.28A15.14,15.14,0,0,1,250,6a14.61,14.61,0,0,1,1.58.81c.46.28.71.51.77.69a31.47,31.47,0,0,0-2.56,6.83,80.13,80.13,0,0,0-2.09,10.89q-.2,1.58-.33,3.58t-.14,4.49v1.77q0,.91.08,1.89a.36.36,0,0,1-.16,0h-.31a5.62,5.62,0,0,1-1.28-.17,13.05,13.05,0,0,1-1.42-.43,6.24,6.24,0,0,1-1.18-.56,1.7,1.7,0,0,1-.61-.54c0-.34,0-.67,0-1v-1q0-2.4.18-4.89t.61-5.12a2.37,2.37,0,0,0-1.46-.42h-6.93q-.95,1.75-1.77,3.48a31.09,31.09,0,0,0-1.42,3.48,30.58,30.58,0,0,0-1.08,3.73A24.27,24.27,0,0,0,229.93,37Zm15.2-23.66q.16-.55.37-1.52t.41-2a8.11,8.11,0,0,0-2.19,1.3,21.11,21.11,0,0,0-2.48,2.35q-1.28,1.4-2.6,3.16t-2.54,3.73q3.31-.33,7.52-.33.31-1.66.69-3.3T245.14,13.39Z" transform="translate(-4.5 -4.65)"/><path class="cls-1" d="M257,37a10.2,10.2,0,0,1-3-1.28,2,2,0,0,1-.79-1.67,14.41,14.41,0,0,1,.55-3.33q.55-2.15,1.44-4.79t2-5.51q1.14-2.87,2.32-5.51t2.3-4.83a28.9,28.9,0,0,1,2-3.41l-.28-1.65a6.16,6.16,0,0,1,1.54.28q1,.28,2,.67a16.27,16.27,0,0,1,1.77.81q.77.41.85.69a21.78,21.78,0,0,0-.32,2.86q-.12,1.91-.12,4.08,0,4.29.33,8.41a42.86,42.86,0,0,0,1.56,8.37q.63-3.15,1.36-6.28t1.52-6q.79-2.85,1.58-5.3t1.52-4.27a20.16,20.16,0,0,1,1.36-2.88q.63-1,1.14-1.12a3.59,3.59,0,0,1,.95.33,6.45,6.45,0,0,1,1,.61,6.18,6.18,0,0,1,.87.79A4.55,4.55,0,0,1,283,8a6,6,0,0,0-2.5,2.4A28,28,0,0,0,278.13,15Q277,17.67,276,20.82T274.34,27q-.73,3.05-1.14,5.65a33.12,33.12,0,0,0-.45,4.18.16.16,0,0,0,0,.12.82.82,0,0,1-.26,0h-.26a10.44,10.44,0,0,1-3.21-.45,3,3,0,0,1-1.83-1.28q-.83-3.31-1.38-6.38t-.93-6.15q-.37-3.07-.59-6.2T264,10a22.87,22.87,0,0,0-1.58,3.09q-.83,1.91-1.62,4.2t-1.52,4.81Q258.57,24.6,258,27t-.87,4.55a26.06,26.06,0,0,0-.31,3.72q0,.83,0,1.18A2.25,2.25,0,0,0,257,37Z" transform="translate(-4.5 -4.65)"/><path class="cls-1" d="M282,26.36a22.8,22.8,0,0,1,.65-5.42,24.36,24.36,0,0,1,1.83-5,23,23,0,0,1,2.82-4.38,20.68,20.68,0,0,1,3.58-3.45A16.27,16.27,0,0,1,295,5.79,13.05,13.05,0,0,1,299.53,5a6.92,6.92,0,0,1,4.24,1.14,3.77,3.77,0,0,1,1.52,3.19,6.36,6.36,0,0,1-.22,1.62,8,8,0,0,1-.63,1.63,11.29,11.29,0,0,1-1,1.56,7.16,7.16,0,0,1-1.22,1.3,3.06,3.06,0,0,1-1.77-.93,3.46,3.46,0,0,1-.95-1.79,10.76,10.76,0,0,0,2.19-2.38,4.26,4.26,0,0,0,.81-2.26q0-1.73-2.17-1.73a5.16,5.16,0,0,0-1.87.37,9.75,9.75,0,0,0-1.95,1,12.44,12.44,0,0,0-1.91,1.62,15.8,15.8,0,0,0-1.71,2.09,27.94,27.94,0,0,0-5.47,16.11,10.32,10.32,0,0,0,.91,4.69,3.57,3.57,0,0,0,2.4,2.09A13.86,13.86,0,0,0,295,32.16a50.41,50.41,0,0,0,5.67-4.61,1.6,1.6,0,0,1,.47.83q-1.15,1.49-2.37,2.86t-2.42,2.51a26.23,26.23,0,0,1-2.36,2,13.38,13.38,0,0,1-2.15,1.33q-4.88,0-7.41-2.72T282,26.36Z" transform="translate(-4.5 -4.65)"/><path class="cls-1" d="M320.21,17.27a2.79,2.79,0,0,1,2,.71,2.62,2.62,0,0,1,.73,2,3.76,3.76,0,0,1-.06.65,4.1,4.1,0,0,1-.14.57q-.51-.08-1.14-.14t-1.5-.06a20.38,20.38,0,0,0-3.43.3q-1.73.3-3.31.49-.91,2.09-1.66,4t-1.28,3.57q-.53,1.62-.83,2.8A11.14,11.14,0,0,0,309.3,34q3.19-.73,6.44-1.24a43.78,43.78,0,0,1,6.83-.51,7.33,7.33,0,0,1,.73,1.42,4.52,4.52,0,0,1,.29,1.65v.5a1.92,1.92,0,0,1-.08.54h-8a22,22,0,0,0-2.34.13q-1.18.12-2.5.34l-3,.5a8,8,0,0,1-3.51-3.47q.67-1.42,1.87-4.32t3.05-7.75a3.37,3.37,0,0,1-2.32-2,3.49,3.49,0,0,1,1.14-.49q.95-.3,2.32-.61.59-1.54,1-2.68t.73-2.15q.31-1,.57-2t.49-2.11a3.15,3.15,0,0,1-2.17-.7,2.32,2.32,0,0,1-.79-1.82,3.56,3.56,0,0,1,.1-.76,6.12,6.12,0,0,1,.22-.76q.79.06,1.52.06h6.56a34.84,34.84,0,0,0,3.92-.2q1.75-.2,3-.37A15.25,15.25,0,0,1,327.38,5,2,2,0,0,1,329,6a6.71,6.71,0,0,1,1.06,2.68,15.66,15.66,0,0,0-2-.16h-1.36a33.25,33.25,0,0,0-4,.22q-1.79.22-3.45.45-.24.35-.53.9T318,11.59q-.47,1-1.16,2.47t-1.67,3.73q1.5-.24,2.82-.37A22,22,0,0,1,320.21,17.27Z" transform="translate(-4.5 -4.65)"/><path class="cls-2" d="M109,65.16c-1.49,0-2.15-.38-2.15-1.28a3.08,3.08,0,0,1,.24-1,.36.36,0,0,1,.33-.17c.07,0,.09,0,.09.07a1.91,1.91,0,0,0,2,1.92c1.63,0,2.75-.95,2.72-2.18,0-1.06-.85-1.7-2.08-2.32S108,58.72,108,57.63c0-1.85,2.22-3.41,4.47-3.41,1.35,0,1.94.45,1.94,1.28a2.18,2.18,0,0,1-.24,1c0,.09-.19.12-.36.12s-.07,0-.07,0c-.12-1-.71-1.85-1.66-1.85a2.22,2.22,0,0,0-2.41,2.08c0,.95.66,1.51,1.75,2.13,1.37.76,2.27,1.51,2.27,2.75,0,2.08-2.25,3.5-4.69,3.5Z" transform="translate(-4.5 -4.65)"/><path class="cls-2" d="M121.35,54.22c.33,0,.47.21.38.64-.24,1.09-.71,3.24-1.06,5-.28,1.51-.71,3.46-.88,4.26,0,.28,0,.43.26.43a3.21,3.21,0,0,0,1-.17c.09,0,.17.09.17.19a.05.05,0,0,1,0,0,5.48,5.48,0,0,1-2.48.57c-.33,0-.43-.17-.43-.35a2.66,2.66,0,0,1,0-.4c.07-.54.47-2.86.78-4.66s.59-3.55.71-4.28c0-.35,0-.47-.24-.47a3,3,0,0,0-.85.21c-.12,0-.24-.12-.24-.21s0,0,.07-.07a7.13,7.13,0,0,1,2.82-.69Zm0-3.6a.84.84,0,0,1,.88.88,1.16,1.16,0,0,1-1.16,1.16.87.87,0,0,1-.9-.85,1.18,1.18,0,0,1,1.16-1.18Z" transform="translate(-4.5 -4.65)"/><path class="cls-2" d="M134.09,54.22c1,0,1.47.88,1.47,2.34a39.26,39.26,0,0,1-1.4,7.55c-.07.28,0,.4.24.4a2.94,2.94,0,0,0,.92-.17c.07,0,.17.09.17.19a.05.05,0,0,1,0,0,5.4,5.4,0,0,1-2.41.57c-.33,0-.45-.14-.45-.33a2.43,2.43,0,0,1,0-.35,43,43,0,0,0,1.16-7.05c0-1.16-.21-1.82-.95-1.82-1.59,0-4,3.74-4.9,6.18a27.46,27.46,0,0,0-.8,2.82c-.07.28-.17.43-.5.43l-.9,0c-.07,0-.09,0-.07-.14.14-.76.73-4,1-5.49s.54-3.08.69-4c0-.38-.07-.47-.24-.47a3,3,0,0,0-.85.21A.24.24,0,0,1,126,55s0,0,.09-.07a7,7,0,0,1,2.82-.69c.33,0,.47.24.38.64-.24,1.14-.71,3.27-1,4.73-.07.26-.17.64-.24.88l.09,0c.17-.31.28-.62.38-.78.9-1.8,3.24-5.49,5.61-5.49Z" transform="translate(-4.5 -4.65)"/><path class="cls-2" d="M146.45,54.22c1.16,0,1.63.52,1.63,1.21a2.57,2.57,0,0,1-.24,1.09c0,.12-.21.17-.35.17s-.09,0-.09-.07c-.12-.92-.47-1.87-1.4-1.87a3.65,3.65,0,0,0-2.7,1.82,9.91,9.91,0,0,0-1.68,5.18c0,1.75.95,2.63,2.27,2.63a4.35,4.35,0,0,0,1.25-.17,9.09,9.09,0,0,0,1.8-.76s.09,0,.09,0a.37.37,0,0,1-.12.31,13.57,13.57,0,0,1-2.27,1.11,4.75,4.75,0,0,1-1.68.24c-2,0-3.27-1-3.27-3.15a9,9,0,0,1,2.58-6,6,6,0,0,1,4.14-1.8Z" transform="translate(-4.5 -4.65)"/><path class="cls-2" d="M158.35,63.41c0,.09,0,.24-.07.28a14.47,14.47,0,0,1-2.44,1.25,5.75,5.75,0,0,1-1.73.21A2.92,2.92,0,0,1,150.87,62c0-3.38,2.67-7.76,6-7.76,1.68,0,2.53,1,2.53,2.11a3.28,3.28,0,0,1-2.3,2.91,9.86,9.86,0,0,1-4.17.57,8.93,8.93,0,0,0-.24,1.82c0,1.77.92,2.75,2.37,2.75a4.64,4.64,0,0,0,1.4-.24,9.33,9.33,0,0,0,1.8-.83s.07,0,.07.07Zm-1.87-8.73c-1.47,0-2.86,2.11-3.43,4.71a5.41,5.41,0,0,0,2.89-.54,2.91,2.91,0,0,0,1.77-2.53c0-.85-.33-1.61-1.21-1.61Z" transform="translate(-4.5 -4.65)"/><path class="cls-2" d="M173.74,51.15c.09,0,.19,0,.17.14-.38,1.77-1.06,5-1.47,7s-1,5.16-1.18,5.92c0,.26,0,.31.14.33l1.3.21a.28.28,0,0,1,.09.24.06.06,0,0,1-.07.07c-.62,0-1.42,0-2.34,0s-1.87,0-2.39,0c0,0,0,0,0-.07a.31.31,0,0,1,.14-.24l1.37-.21a.33.33,0,0,0,.33-.28c.12-.57.71-4.09,1-5.61.35-2.06.78-4.54.92-5.47,0-.31,0-.38-.19-.35l-1.66.45c-.09,0-.21-.09-.21-.19s0-.07.07-.09Z" transform="translate(-4.5 -4.65)"/><path class="cls-2" d="M184.37,57.44c-.14.24-.26.47-.4.66A3.89,3.89,0,0,1,180.63,60a2.7,2.7,0,0,1-2.77-3c0-2.72,2.2-5.89,5.33-5.89,2,0,3.27,1.35,3.27,3.72a12.16,12.16,0,0,1-3.31,7.88,9.33,9.33,0,0,1-4.83,2.67c-.14,0-.26-.17-.26-.26s0-.07,0-.07a8.58,8.58,0,0,0,4.09-2.91,13.52,13.52,0,0,0,2-3.83,8.18,8.18,0,0,0,.24-.85Zm-1.42-5.94c-2.13,0-3.36,3.64-3.36,5.59,0,1.37.59,2.27,1.63,2.27,1.37,0,2.63-1.28,3.24-3.08a7.58,7.58,0,0,0,.28-2.06c0-1.54-.59-2.72-1.77-2.72Z" transform="translate(-4.5 -4.65)"/><path class="cls-2" d="M196.75,57.44c-.14.24-.26.47-.4.66A3.89,3.89,0,0,1,193,60a2.7,2.7,0,0,1-2.77-3c0-2.72,2.2-5.89,5.33-5.89,2,0,3.27,1.35,3.27,3.72a12.16,12.16,0,0,1-3.31,7.88,9.33,9.33,0,0,1-4.83,2.67c-.14,0-.26-.17-.26-.26s0-.07,0-.07a8.58,8.58,0,0,0,4.09-2.91,13.52,13.52,0,0,0,2-3.83,8.18,8.18,0,0,0,.24-.85Zm-1.42-5.94c-2.13,0-3.36,3.64-3.36,5.59,0,1.37.59,2.27,1.63,2.27,1.37,0,2.63-1.28,3.24-3.08a7.58,7.58,0,0,0,.28-2.06c0-1.54-.59-2.72-1.77-2.72Z" transform="translate(-4.5 -4.65)"/><path class="cls-2" d="M207.64,64.83c0,.14-.09.21-.24.21-.4,0-1.66-.07-4-.07-1.47,0-2.34,0-2.79,0-.17,0-.28-.07-.33-.31a.94.94,0,0,1-.07-.31.22.22,0,0,1,.09-.14c2.93-2.25,7.31-6,7.31-9.92,0-1.44-.73-2.32-1.85-2.32a4,4,0,0,0-3,1.85s0,0-.07,0-.21-.28-.12-.43a5.31,5.31,0,0,1,4.12-2.39,2.7,2.7,0,0,1,2.84,3c0,4-4.26,7.76-7.08,9.8-.19.17-.45.33-.73.54l0,0c.17,0,.52,0,.76,0,.8,0,2.72-.12,4.19-.33a.83.83,0,0,0,.54-.38l.88-1.35a.13.13,0,0,1,.09-.07c.09,0,.21.12.19.21Z" transform="translate(-4.5 -4.65)"/></svg>